<svg xmlns="http://www.w3.org/2000/svg" width="64" height="64" viewBox="0 0 64 64" shape-rendering="crispEdges">
  <!-- pixel bonsai -->
  <rect x="18" y="46" width="28" height="6" fill="#92400e"/>
  <rect x="20" y="44" width="24" height="2" fill="#b45309"/>
  <rect x="22" y="42" width="20" height="2" fill="#78350f"/>
  <rect x="24" y="40" width="16" height="2" fill="#451a03"/>
  <!-- soil -->
  <rect x="24" y="38" width="16" height="2" fill="#3f2a1a"/>
  <!-- trunk -->
  <rect x="30" y="30" width="4" height="8" fill="#78350f"/>
  <rect x="28" y="26" width="4" height="6" fill="#92400e"/>
  <rect x="26" y="22" width="4" height="6" fill="#78350f"/>
  <rect x="32" y="24" width="4" height="4" fill="#92400e"/>
  <!-- canopy pads -->
  <rect x="20" y="14" width="12" height="6" fill="#16a34a"/>
  <rect x="22" y="12" width="8" height="2" fill="#22c55e"/>
  <rect x="30" y="16" width="14" height="6" fill="#15803d"/>
  <rect x="32" y="14" width="10" height="2" fill="#16a34a"/>
  <rect x="26" y="20" width="12" height="4" fill="#166534"/>
  <rect x="18" y="20" width="8" height="4" fill="#22c55e"/>
  <rect x="36" y="22" width="8" height="4" fill="#16a34a"/>
</svg>
