<svg xmlns="http://www.w3.org/2000/svg" width="64" height="64" viewBox="0 0 64 64" fill="none">
  <!-- perfectly centered lightbulb -->
  <path
    d="M32 8c-8.8 0-16 7.2-16 16 0 5.6 2.9 9.7 6.5 13.4.7.7 1.5 1.8 1.5 2.9V43c0 1.1.9 2 2 2h12c1.1 0 2-.9 2-2v-2.7c0-1.1.8-2.2 1.5-2.9C45.1 33.7 48 29.6 48 24c0-8.8-7.2-16-16-16Z"
    fill="#FFE7A0"
    stroke="#3A342C"
    stroke-width="2"
    stroke-linejoin="round"
  />
  <rect x="24" y="45" width="16" height="5" rx="1.5" fill="#EFEAE2" stroke="#3A342C" stroke-width="2"/>
  <path d="M26 52h12" stroke="#3A342C" stroke-width="2" stroke-linecap="round"/>
  <path d="M28 55h8" stroke="#3A342C" stroke-width="2" stroke-linecap="round"/>
  <circle cx="32" cy="20" r="3.2" fill="#FFFDF5"/>
</svg>
