<svg xmlns="http://www.w3.org/2000/svg" width="64" height="64" viewBox="0 0 64 64">
  <defs>
    <radialGradient id="discGrad" cx="36%" cy="30%" r="74%">
      <stop offset="0%" stop-color="#3a3a3f"/>
      <stop offset="38%" stop-color="#1d1d21"/>
      <stop offset="72%" stop-color="#0d0d10"/>
      <stop offset="100%" stop-color="#030304"/>
    </radialGradient>
    <radialGradient id="labelGrad" cx="38%" cy="34%" r="70%">
      <stop offset="0%" stop-color="#ffd7aa"/>
      <stop offset="58%" stop-color="#e58f48"/>
      <stop offset="100%" stop-color="#9e5b2a"/>
    </radialGradient>
    <linearGradient id="glossGrad" x1="0%" y1="0%" x2="100%" y2="100%">
      <stop offset="0%" stop-color="#ffffff" stop-opacity="0.28"/>
      <stop offset="45%" stop-color="#ffffff" stop-opacity="0.05"/>
      <stop offset="100%" stop-color="#ffffff" stop-opacity="0"/>
    </linearGradient>
  </defs>

  <circle cx="32" cy="32" r="25" fill="url(#discGrad)"/>
  <circle cx="32" cy="32" r="23.3" fill="none" stroke="#101014" stroke-width="1.1"/>
  <circle cx="32" cy="32" r="20.8" fill="none" stroke="#16161a" stroke-width="0.9"/>
  <circle cx="32" cy="32" r="18.2" fill="none" stroke="#1d1d22" stroke-width="0.85"/>
  <circle cx="32" cy="32" r="15.7" fill="none" stroke="#232328" stroke-width="0.75"/>
  <circle cx="32" cy="32" r="13.3" fill="none" stroke="#2a2a2f" stroke-width="0.65"/>

  <path d="M14 29C19 25 24 24 31 24" stroke="#3d3d42" stroke-width="0.7" stroke-linecap="round" opacity="0.55" fill="none"/>
  <path d="M17 20C23 16 31 15 39 17" stroke="#2f2f34" stroke-width="0.7" stroke-linecap="round" opacity="0.5" fill="none"/>
  <path d="M34 44C40 45 45 43 49 40" stroke="#35353a" stroke-width="0.7" stroke-linecap="round" opacity="0.5" fill="none"/>
  <ellipse cx="24" cy="21" rx="11.2" ry="5.8" fill="url(#glossGrad)"/>

  <circle cx="32" cy="32" r="8.9" fill="url(#labelGrad)"/>
  <circle cx="32" cy="32" r="6.2" fill="none" stroke="#8f5328" stroke-width="0.7" opacity="0.6"/>
  <path d="M27 29H37" stroke="#f6cda1" stroke-width="0.65" opacity="0.72"/>
  <path d="M27.8 35H36.2" stroke="#7f4823" stroke-width="0.65" opacity="0.6"/>
  <circle cx="32" cy="32" r="2" fill="#151518"/>
</svg>
