<svg xmlns="http://www.w3.org/2000/svg" width="64" height="64" viewBox="0 0 64 64" fill="none">
  <rect x="6" y="26" width="52" height="28" fill="#334155"/>
  <rect x="8" y="28" width="48" height="22" fill="#475569"/>
  <rect x="6" y="52" width="52" height="2" fill="#1e293b"/>
  <circle cx="27" cy="39" r="15" fill="#94a3b8"/>
  <circle cx="27" cy="39" r="13" fill="#64748b"/>
  <circle cx="27" cy="39" r="11.5" fill="#0f172a"/>
  <circle cx="27" cy="39" r="9.5" fill="none" stroke="#1e293b" stroke-width="1.2"/>
  <circle cx="27" cy="39" r="7" fill="none" stroke="#1e293b" stroke-width="1"/>
  <circle cx="27" cy="39" r="4.2" fill="#f59e0b"/>
  <circle cx="27" cy="39" r="2.4" fill="#fbbf24"/>
  <circle cx="27" cy="39" r="1.1" fill="#0f172a"/>
  <rect x="46" y="28" width="6" height="6" fill="#cbd5e1"/>
  <rect x="48" y="30" width="2" height="2" fill="#64748b"/>
  <rect x="36" y="36" width="14" height="2" fill="#e2e8f0"/>
  <rect x="34" y="38" width="4" height="4" fill="#94a3b8"/>
  <rect x="35" y="39" width="2" height="2" fill="#475569"/>
  <rect x="48" y="42" width="6" height="6" fill="#cbd5e1"/>
  <rect x="50" y="44" width="2" height="2" fill="#64748b"/>
  <rect x="46" y="50" width="10" height="2" fill="#94a3b8"/>
</svg>
