<svg xmlns="http://www.w3.org/2000/svg" viewBox="0 0 64 64" fill="none">
  <path d="M14 28c0-2.2 1.8-4 4-4h18c6.6 0 12 5.4 12 12v2c0 1.1-.9 2-2 2H30c-1.7 0-3-1.3-3-3v-1c0-2.2-1.8-4-4-4h-5c-2.2 0-4-1.8-4-4Z" fill="#6B8F71"/>
  <path d="M40 24c4.4 0 8 2.2 8 6.5V34h-4.5c-.8 0-1.5-.7-1.5-1.5V30c0-2.2-1.3-3.5-3.5-3.5H40V24Z" fill="#5A7A60"/>
  <path d="M12 30h8c1.1 0 2 .9 2 2v2c0 1.1-.9 2-2 2h-6c-2.2 0-4-1.8-4-4 0-1.1.9-2 2-2Z" fill="#87A88C"/>
  <path d="M46 36c1.5 2.2 3.8 4.8 4.2 7.2.3 1.6-.8 3-2.3 3.1-1.4.1-2.5-1.1-2.7-2.5-.3-2.2 1.2-5.1 2.8-7.8.4-.6 1.3-.5 1.6.2Z" fill="#7EB6FF" opacity=".9"/>
  <circle cx="48.5" cy="48.5" r="1.6" fill="#9FCCFF"/>
  <circle cx="51.2" cy="52.2" r="1.2" fill="#9FCCFF" opacity=".85"/>
</svg>
