<svg xmlns="http://www.w3.org/2000/svg" width="64" height="64" viewBox="0 0 64 64" fill="none">
  <!-- minecraft-ish water bucket -->
  <path d="M18 22h28l-3 28c-.4 3.2-2.8 5-5.8 5H26.8c-3 0-5.4-1.8-5.8-5L18 22Z" fill="#8B8F98" stroke="#3A342C" stroke-width="2"/>
  <path d="M20.5 26h23l-2.4 22.5c-.2 1.8-1.5 2.8-3.1 2.8H26c-1.6 0-2.9-1-3.1-2.8L20.5 26Z" fill="#3D8FD6"/>
  <path d="M23 30h18l-.8 7H23.8L23 30Z" fill="#6EB6F0" opacity=".85"/>
  <rect x="14" y="16" width="36" height="8" rx="2.5" fill="#A8ADB8" stroke="#3A342C" stroke-width="2"/>
  <path d="M22 16V13c0-3.3 2.7-6 6-6h8c3.3 0 6 2.7 6 6v3" stroke="#3A342C" stroke-width="2" stroke-linecap="round"/>
</svg>
